<?xml version="1.0" encoding="UTF-8" standalone="no"?>
<!DOCTYPE svg PUBLIC "-//W3C//DTD SVG 1.1//EN" "http://www.w3.org/Graphics/SVG/1.1/DTD/svg11.dtd">
<svg width="100%" height="100%" viewBox="0 0 938 938" version="1.1" xmlns="http://www.w3.org/2000/svg" xmlns:xlink="http://www.w3.org/1999/xlink" xml:space="preserve" xmlns:serif="http://www.serif.com/" style="fill-rule:evenodd;clip-rule:evenodd;stroke-linejoin:round;stroke-miterlimit:2;">
    <g>
        <path d="M92.772,419.79C100.014,417.946 99.279,421.254 101.926,428.212C104.964,436.641 104.917,436.541 108.057,444.937C111.222,448.132 111.511,447.741 116.058,447.956C116.511,447.977 121.176,448.198 120.048,451.981C119.628,453.39 111.409,453.647 110.645,453.671C103.256,453.903 112.793,459.144 109.151,468.159C105.948,476.089 107.42,476.686 102.631,483.647C99.49,488.213 98.89,488.253 99.12,496.96C99.334,505.067 121.699,506.181 135.702,515.362C145.257,521.627 148.216,540.613 148.061,541.962C147.476,547.034 145.092,546.199 101.758,546.262C97.546,546.268 93.334,546.273 89.121,546.279C69.268,546.31 49.416,546.34 29.563,546.371C22.541,546.18 20.24,548.902 17.957,542.177C18.681,536.904 18.924,537.009 19.884,532.98C21.227,528.59 21.127,528.649 22.686,524.275C32.824,504.433 66.038,507.531 66.328,497.014C66.577,487.966 65.809,487.965 60.737,480.433C58.327,474.319 58.752,474.238 56.209,468.242C55.921,467.562 54.074,463.208 56.348,459.01C60.335,451.651 51.478,453.841 49.266,453.787C43.776,453.654 43.316,448.314 49.25,448.045C50.452,447.99 51.658,448.061 52.859,448.001C62.486,447.518 61.446,414.339 72.447,419.823C81.573,424.372 82.397,425.53 92.772,419.791L92.772,419.79Z" style="fill:rgb(6,86,102);"/>
        <path d="M775.025,440.568L780.273,439.603C780.556,440.933 781.974,441.836 782.258,443.166C782.706,445.27 781.995,447.507 782.407,449.619C783.901,457.282 796.487,446.85 801.829,458.675C792.568,468.541 783.273,453.342 776.067,468.303C774.555,472.483 750.25,539.682 767.119,523.134C785.996,504.616 782.884,501.972 801.739,483.272C812.782,475.621 826.211,475.186 827.311,476.406C831.465,481.012 807.085,542.604 825.201,519.86C839.662,501.705 849.516,481.638 851.482,481.551C868.607,480.798 837.366,529.685 851.388,522.212C860.653,517.274 876.949,488.864 878.765,485.697C884.042,479.942 883.752,479.874 890.393,475.401C891.459,475.551 892.442,474.401 893.508,474.551C896.939,475.034 895.963,483.254 903,482.717C907.388,482.382 911.718,481.503 916.09,481.011C916.692,480.943 923.117,480.221 922.736,484.647C922.668,485.438 921.631,485.929 921.563,486.72C906.376,492.462 903.985,489.187 902.369,494.03C896.579,511.382 900.041,513.622 886.343,525.824C880.275,531.229 870.157,531.779 867.781,523.437C864.733,512.737 852.641,539.334 841.904,529.902C836.765,525.388 840.398,520.184 835.258,520.872C831.484,521.377 820.107,540.639 810.826,528.934C805.841,522.647 812.807,512.65 806.253,513.848C802.729,514.492 795.469,535.687 784.292,522.965C777.838,515.618 764.153,546.1 751.952,529.714C746.091,521.842 756.508,493.336 754.738,491.22C753.848,490.155 745.779,489.484 744.291,494.395C738.951,512.019 742.498,514.488 728.156,526.26C713.097,538.621 701.372,523.427 717.116,492.132C722.641,481.15 734.794,470.244 738.75,478.201C743.891,488.542 758.925,480.722 760.18,478.015C766.892,463.54 762.033,463.144 760.84,463.1C760.557,463.09 739.884,467.039 734.211,463.361C720.735,454.624 747.245,457.108 767.693,453.178C769.573,451.38 770.509,452.02 775.024,440.567L775.025,440.568ZM724.687,500.779C719.153,516.588 717.27,517.21 719.9,519.447C726.98,525.467 741.683,481.269 729.095,491.976C728.495,492.486 728.771,492.624 724.687,500.779ZM791.565,513.979C793.964,515.855 793.721,515.872 793.964,515.855C796.574,515.675 813.005,492.762 813.073,491.269C813.339,485.48 802.524,487.569 791.565,513.979ZM890.924,501.031C892.386,494.942 892.522,494.995 892.503,494.454C891.978,479.399 876.032,510.121 876.77,517.18C878.162,530.48 890.241,502.607 890.924,501.031Z" style="fill:rgb(250,241,215);"/>
        <path d="M593.007,443.393C594.033,443.551 595.069,442.823 596.095,442.981C606.515,444.582 587.025,488.958 580.968,511.254C566.626,564.049 602.187,495.229 609.015,495.313C620.655,495.456 589.793,534.004 583.59,537.316C568.028,545.624 568.282,525.334 568.302,523.696C568.529,505.513 547.857,548.538 532.478,532.686C528.218,528.295 527.769,521.465 527.627,521.285C525.727,518.88 521.198,525.673 520.824,526.233C512.8,538.266 501.387,545.946 495.941,537.031C490.983,528.915 494.587,522.136 494.429,521.146C493.448,515.01 478.403,535.298 471.676,520.293C468.99,514.302 479.939,494.833 481.078,492.807C488.68,484.919 488.301,483.881 499.108,481.751C509.92,479.62 515.739,439.841 521.572,439.263C536.762,437.758 510.38,485.428 502.83,527.283C500.057,542.657 522.956,512.903 532.938,495.752C552.142,462.753 566.639,481.702 562.462,491.075C557.623,501.933 555.321,499.849 544.254,504.283C537.559,506.966 533.548,539.241 550.074,523.078C582.949,490.925 574.035,485.244 593.008,443.393L593.007,443.393ZM545.911,494.563C547.357,493.97 549.122,494.618 550.567,494.025C552.203,493.354 555.072,489.302 555.071,488.288C555.07,487.4 550.977,481.711 545.911,494.563ZM486.718,501.783C486.085,502.794 475.52,519.654 483.205,516.27C487.148,514.533 504.891,491.532 495.95,491.993C494.875,492.048 493.539,492.117 486.718,501.783Z" style="fill:rgb(250,241,215);"/>
        <path d="M407.847,444.173C414.37,464.822 379.017,528.624 389.772,530.059C395.03,530.76 417.49,495.096 426.089,483.4C448.284,466.289 452.118,490.108 441.278,498.615C432.742,505.314 423.496,500.706 422.659,520.97C421.675,544.799 454.743,498.81 456.163,497.031C461.439,490.42 464.64,496.61 462.386,500.924C461.799,502.046 461.593,501.667 453.122,513.762C443.339,525.872 427.916,544.15 416.465,532.588C410.895,526.963 415.355,518.56 408.622,522.613C405.78,524.324 403.782,528.146 398.791,533.677C392.539,539.206 390.43,539.382 389.18,539.517C375.507,540.991 379.73,519.945 377.4,519.849C369.675,519.531 365.597,537.461 353.453,531.283C346.317,527.653 351.672,515.649 344.53,515.4C343.577,515.367 332.615,535.936 324.029,511.962C321.262,508.001 321.711,507.85 318.05,504.706C330.436,498.669 328.579,496.395 338.859,487.047C347.163,479.496 349.038,483.94 360.338,479.451C376.357,473.088 357.041,512.116 357.731,520.894C358.314,528.311 365.416,518.808 376.754,505.151C385.699,494.376 386.229,490.006 399.051,453.146C399.969,450.862 400.476,448.427 401.394,446.143C402.856,442.505 403.914,444.106 407.847,444.174L407.847,444.173ZM431.65,494.785L437.681,491.772C440.504,488.205 437.01,483.219 432.268,489.138C429.945,492.037 431.66,494.693 431.65,494.786L431.65,494.785ZM347.081,501.54L349.687,497.937C350.014,497.48 356.19,488.853 347.033,491.43C344.326,492.192 335.652,505.821 334.985,508.262C331.428,521.296 346.393,502.408 347.08,501.54L347.081,501.54Z" style="fill:rgb(250,241,215);"/>
        <path d="M202.115,440.824C205.074,437.766 212.979,428.238 220.816,426.282C259.794,416.554 244.051,495.937 230.567,463.061C233.253,450.181 233.095,448.237 232.99,446.937C228.749,394.697 154.558,531.885 188.336,542.031C197.685,544.839 209.255,531.814 212.582,528.768C237.209,503.626 240.207,498.109 241.698,496.206C248.97,487.522 248.458,487.25 257.418,480.642C267.631,478.685 268.265,478.419 269.152,478.048C294.083,467.606 263.357,508.53 271.204,526.119L273.779,532.288C256.426,537.637 260.001,519.335 260.092,517.937C260.872,505.932 251.537,521.206 251.129,521.874C250.152,522.828 242.901,533.748 235.024,523.541C227.641,513.974 228.567,536.77 195.439,550.435C183.306,551.64 182.814,551.191 173.932,543.044C156.717,513.466 179.214,469.459 202.115,440.823L202.115,440.824ZM244.449,517.136C262.575,499.749 266.552,487.865 260.033,489.149C258.979,489.356 257.691,489.61 250.919,499.002C240.207,513.858 244.361,516.485 244.449,517.136Z" style="fill:rgb(250,241,215);"/>
        <path d="M724,439.141L721.364,445.839C686.628,540.475 691.752,558.436 673.414,550.432C664.821,546.681 667.39,533.282 665.007,484.981C664.649,477.733 665.701,429.642 656.227,465.093C654.524,471.467 647.568,491.284 647.529,491.397C641.435,510.578 642.216,510.563 636.959,529.981C634.659,538.477 624.788,539.321 626.615,527.24C627.51,521.324 629.178,501.877 651.036,446.257C656.299,434.982 655.815,428.366 666.746,434.249C674.94,438.659 674.768,459.574 675.544,465.682L675.831,472.111C678.696,534.036 674.837,546.361 680.881,538.166C682.813,535.546 711.346,416.759 725.144,430.169C726.685,431.667 724.242,438.46 723.998,439.141L724,439.141Z" style="fill:rgb(250,241,215);"/>
        <path d="M318.049,504.704C321.71,507.848 321.26,507.999 324.028,511.96C312.787,513.68 314.877,517.114 314.555,524.311C313.98,537.157 299.623,544.962 292.62,542.776C273.077,536.677 301.273,519.617 299.269,511.224C296.167,498.232 291.565,517.846 273.779,532.289L271.204,526.12C290.166,505.316 293.696,491.955 294.601,488.531C300.817,465.006 335.016,468.918 327.316,485.321C324.351,491.636 318.242,492.278 318.177,485.54C318.051,472.394 296.971,483.831 308.822,504.736C311.598,509.633 312.851,506.854 318.049,504.703L318.049,504.704ZM297.72,535.72C308.827,527.223 302.554,524.425 301.926,524.613C298.358,525.68 293.216,531.476 295.043,534.874C295.486,535.698 297.277,534.896 297.72,535.72Z" style="fill:rgb(250,241,215);"/>
        <g transform="matrix(1.355748,0,0,1.289149,-306.568184,-137.429031)">
            <path d="M856.134,471.7C857.179,479.061 863.994,473.4 861.002,469.733C860.863,469.561 855.842,469.515 858.041,468.371" style="fill:rgb(250,241,215);"/>
        </g>
    </g>
</svg>
